#N canvas 958 490 670 204 12;
#X msg 15 38 connect 127.0.0.1 8889;
#X text 78 15 IPv4;
#X msg 26 63 disconnect;
#N canvas 1052 154 767 815 osc_to_python 0;
#X obj 14 20 inlet;
#X obj 192 264 netsend -u -b;
#X text 53 20 < Connect message;
#X obj 268 22 inlet;
#X text 310 23 < Reset;
#X obj 400 27 inlet;
#X text 439 27 < Run;
#X obj 400 54 tgl 15 0 empty empty empty 17 7 0 10 -262144 -1 -1 0
1;
#X obj 536 28 inlet;
#X text 577 26 < BPM;
#X floatatom 536 107 5 0 0 0 - - -;
#X obj 668 26 inlet;
#X text 708 26 < PPQ;
#X floatatom 668 50 5 0 0 0 - - -;
#X obj 536 132 *;
#X obj 668 73 t b f;
#N canvas 1233 646 450 300 midi_clock 0;
#X obj 12 13 inlet;
#X text 55 15 < 1:start \, 0:stop;
#X obj 198 13 inlet;
#X obj 197 74 /;
#X msg 198 42 60000 \$1;
#X obj 12 114 metro;
#X obj 12 138 outlet;
#X floatatom 197 114 5 0 0 0 - - -;
#X obj 197 137 outlet;
#X text 247 137 < ms per quarter;
#X text 240 14 < BPM * PPQ;
#X connect 0 0 5 0;
#X connect 2 0 4 0;
#X connect 3 0 5 1;
#X connect 3 0 7 0;
#X connect 4 0 3 0;
#X connect 5 0 6 0;
#X connect 7 0 8 0;
#X restore 400 169 pd midi_clock;
#X floatatom 488 196 5 0 0 0 - - -;
#X obj 400 197 bng 15 250 50 0 empty empty empty 17 7 0 10 -262144
-1 -1;
#X obj 401 216 s trigger;
#X obj 192 177 oscformat /clock/tick;
#X obj 192 72 cyclone/counter;
#X obj 192 48 bng 15 250 50 0 empty empty empty 17 7 0 10 -262144 -1
-1;
#X floatatom 192 96 5 0 0 0 - - -;
#X msg 268 47 0;
#X obj 192 22 r trigger;
#X obj 192 121 t f f;
#X obj 224 148 outlet;
#X text 273 148 < Ticks;
#X obj 192 206 list prepend send;
#X obj 192 233 list trim;
#X floatatom 192 288 5 0 0 0 - - -;
#X connect 0 0 1 0;
#X connect 1 0 31 0;
#X connect 3 0 24 0;
#X connect 5 0 7 0;
#X connect 7 0 16 0;
#X connect 8 0 10 0;
#X connect 10 0 14 0;
#X connect 11 0 13 0;
#X connect 13 0 15 0;
#X connect 14 0 16 1;
#X connect 15 0 10 0;
#X connect 15 1 14 1;
#X connect 16 0 18 0;
#X connect 16 1 17 0;
#X connect 18 0 19 0;
#X connect 20 0 29 0;
#X connect 21 0 23 0;
#X connect 22 0 21 0;
#X connect 23 0 26 0;
#X connect 24 0 21 3;
#X connect 25 0 22 0;
#X connect 26 0 20 0;
#X connect 26 1 27 0;
#X connect 29 0 30 0;
#X connect 30 0 1 0;
#X restore 15 118 pd osc_to_python;
#X f 72;
#X text 146 14 Port;
#X floatatom 15 142 5 0 0 0 - - -;
#X text 55 144 Ticks count;
#X obj 140 94 bng 15 250 50 0 empty empty empty 17 7 0 10 -262144 -1
-1;
#X text 156 92 < Reset;
#X obj 265 94 tgl 15 0 empty empty empty 17 7 0 10 -262144 -1 -1 0
1;
#X text 284 92 < Start/stop;
#X obj 390 45 loadbang;
#X msg 390 69 120;
#X floatatom 390 93 5 0 0 0 - - -;
#X text 429 94 < BPM;
#X obj 516 45 loadbang;
#X floatatom 516 93 5 0 0 0 - - -;
#X msg 516 69 480;
#X text 555 94 < PPQ;
#X connect 0 0 3 0;
#X connect 2 0 3 0;
#X connect 3 0 5 0;
#X connect 7 0 3 1;
#X connect 9 0 3 2;
#X connect 11 0 12 0;
#X connect 12 0 13 0;
#X connect 13 0 3 3;
#X connect 15 0 17 0;
#X connect 16 0 3 4;
#X connect 17 0 16 0;
